<svg width="44" height="44" viewBox="0 0 44 44" fill="none" xmlns="http://www.w3.org/2000/svg">
<g id="Delete Button">
<path id="Vector" d="M17.875 2.75H26.125C26.4897 2.75 26.8394 2.89487 27.0973 3.15273C27.3551 3.41059 27.5 3.76033 27.5 4.125V6.875H16.5V4.125C16.5 3.76033 16.6449 3.41059 16.9027 3.15273C17.1606 2.89487 17.5103 2.75 17.875 2.75ZM30.25 6.875V4.125C30.25 3.03098 29.8154 1.98177 29.0418 1.20818C28.2682 0.434597 27.219 0 26.125 0L17.875 0C16.781 0 15.7318 0.434597 14.9582 1.20818C14.1846 1.98177 13.75 3.03098 13.75 4.125V6.875H6.8915C6.88233 6.87492 6.87317 6.87492 6.864 6.875H4.125C3.76033 6.875 3.41059 7.01987 3.15273 7.27773C2.89487 7.53559 2.75 7.88533 2.75 8.25C2.75 8.61467 2.89487 8.96441 3.15273 9.22227C3.41059 9.48013 3.76033 9.625 4.125 9.625H5.6045L7.95025 38.94C8.06087 40.3183 8.68657 41.6043 9.70275 42.542C10.7189 43.4797 12.051 44.0003 13.4338 44H30.5662C31.949 44.0003 33.2811 43.4797 34.2972 42.542C35.3134 41.6043 35.9391 40.3183 36.0498 38.94L38.3955 9.625H39.875C40.2397 9.625 40.5894 9.48013 40.8473 9.22227C41.1051 8.96441 41.25 8.61467 41.25 8.25C41.25 7.88533 41.1051 7.53559 40.8473 7.27773C40.5894 7.01987 40.2397 6.875 39.875 6.875H37.1388C37.1296 6.87492 37.1204 6.87492 37.1112 6.875H30.25ZM35.6345 9.625L33.308 38.72C33.2527 39.4091 32.9398 40.0522 32.4317 40.521C31.9237 40.9899 31.2576 41.2501 30.5662 41.25H13.4338C12.7424 41.2501 12.0763 40.9899 11.5683 40.521C11.0602 40.0522 10.7473 39.4091 10.692 38.72L8.3655 9.625H35.6345ZM15.0453 12.375C15.4092 12.354 15.7665 12.4783 16.0388 12.7207C16.3111 12.963 16.476 13.3036 16.4973 13.6675L17.8723 37.0425C17.8867 37.4021 17.7595 37.7531 17.5181 38.0201C17.2767 38.287 16.9402 38.4486 16.5809 38.4702C16.2216 38.4918 15.8682 38.3717 15.5965 38.1356C15.3248 37.8995 15.1565 37.5663 15.1277 37.2075L13.75 13.8325C13.7388 13.6519 13.7634 13.4708 13.8224 13.2997C13.8814 13.1286 13.9735 12.9708 14.0936 12.8354C14.2137 12.7 14.3593 12.5896 14.5222 12.5106C14.685 12.4316 14.8618 12.3855 15.0425 12.375H15.0453ZM28.9548 12.375C29.1354 12.3855 29.3123 12.4316 29.4751 12.5106C29.6379 12.5896 29.7835 12.7 29.9036 12.8354C30.0237 12.9708 30.1159 13.1286 30.1748 13.2997C30.2338 13.4708 30.2584 13.6519 30.2472 13.8325L28.8722 37.2075C28.8649 37.3902 28.8212 37.5696 28.7437 37.7353C28.6661 37.9009 28.5563 38.0494 28.4207 38.1721C28.2851 38.2947 28.1264 38.3891 27.9538 38.4497C27.7813 38.5103 27.5984 38.5358 27.4158 38.5248C27.2333 38.5139 27.0548 38.4666 26.8907 38.3858C26.7267 38.305 26.5804 38.1922 26.4605 38.0542C26.3405 37.9162 26.2493 37.7556 26.1922 37.5819C26.135 37.4082 26.1131 37.2248 26.1278 37.0425L27.5028 13.6675C27.524 13.3036 27.6889 12.963 27.9612 12.7207C28.2335 12.4783 28.5908 12.354 28.9548 12.375ZM22 12.375C22.3647 12.375 22.7144 12.5199 22.9723 12.7777C23.2301 13.0356 23.375 13.3853 23.375 13.75V37.125C23.375 37.4897 23.2301 37.8394 22.9723 38.0973C22.7144 38.3551 22.3647 38.5 22 38.5C21.6353 38.5 21.2856 38.3551 21.0277 38.0973C20.7699 37.8394 20.625 37.4897 20.625 37.125V13.75C20.625 13.3853 20.7699 13.0356 21.0277 12.7777C21.2856 12.5199 21.6353 12.375 22 12.375Z" fill="white"/>
</g>
</svg>
