<svg width="44" height="44" viewBox="0 0 44 44" fill="none" xmlns="http://www.w3.org/2000/svg">
<g id="Edit Button">
<path id="Vector" d="M42.6305 5.33501C42.8874 5.59275 43.0317 5.94184 43.0317 6.30576C43.0317 6.66969 42.8874 7.01877 42.6305 7.27651L39.7622 10.1475L34.2622 4.64751L37.1305 1.77651C37.3883 1.51874 37.738 1.37393 38.1026 1.37393C38.4672 1.37393 38.8168 1.51874 39.0747 1.77651L42.6305 5.33226V5.33501ZM37.818 12.089L32.318 6.58901L13.5822 25.3275C13.4308 25.4788 13.3169 25.6634 13.2495 25.8665L11.0357 32.505C10.9956 32.626 10.9899 32.7558 11.0192 32.8799C11.0486 33.004 11.1119 33.1175 11.2021 33.2076C11.2923 33.2978 11.4057 33.3611 11.5298 33.3905C11.6539 33.4199 11.7837 33.4142 11.9047 33.374L18.5432 31.1603C18.7461 31.0936 18.9306 30.9806 19.0822 30.8303L37.818 12.089Z" fill="white"/>
<path id="Vector_2" fill-rule="evenodd" clip-rule="evenodd" d="M2.75 37.125C2.75 38.219 3.1846 39.2682 3.95818 40.0418C4.73177 40.8154 5.78098 41.25 6.875 41.25H37.125C38.219 41.25 39.2682 40.8154 40.0418 40.0418C40.8154 39.2682 41.25 38.219 41.25 37.125V20.625C41.25 20.2603 41.1051 19.9106 40.8473 19.6527C40.5894 19.3949 40.2397 19.25 39.875 19.25C39.5103 19.25 39.1606 19.3949 38.9027 19.6527C38.6449 19.9106 38.5 20.2603 38.5 20.625V37.125C38.5 37.4897 38.3551 37.8394 38.0973 38.0973C37.8394 38.3551 37.4897 38.5 37.125 38.5H6.875C6.51033 38.5 6.16059 38.3551 5.90273 38.0973C5.64487 37.8394 5.5 37.4897 5.5 37.125V6.875C5.5 6.51033 5.64487 6.16059 5.90273 5.90273C6.16059 5.64487 6.51033 5.5 6.875 5.5H24.75C25.1147 5.5 25.4644 5.35513 25.7223 5.09727C25.9801 4.83941 26.125 4.48967 26.125 4.125C26.125 3.76033 25.9801 3.41059 25.7223 3.15273C25.4644 2.89487 25.1147 2.75 24.75 2.75H6.875C5.78098 2.75 4.73177 3.1846 3.95818 3.95818C3.1846 4.73177 2.75 5.78098 2.75 6.875V37.125Z" fill="white"/>
</g>
</svg>
